<svg 
          width="22" 
          height="15" fill="none" 
          xmlns="http://www.w3.org/2000/svg">
          <path d="M 11 4.5 C 11.795649468898773 4.5 12.558711588382721 4.816070139408112 13.121320724487305 5.378679275512695 C 13.683929860591888 5.941288411617279 14 6.704350531101227 14 7.5 C 14 8.295649468898773 13.683929860591888 9.058711588382721 13.121320724487305 9.621320724487305 C 12.558711588382721 10.183929860591888 11.795649468898773 10.5 11 10.5 C 10.204350531101227 10.5 9.441288411617279 10.183929860591888 8.878679275512695 9.621320724487305 C 8.316070139408112 9.058711588382721 8 8.295649468898773 8 7.5 C 8 6.704350531101227 8.316070139408112 5.941288411617279 8.878679275512695 5.378679275512695 C 9.441288411617279 4.816070139408112 10.204350531101227 4.500000000000002 11 4.5 Z M 11 0 C 16 0 20.269999980926514 3.1100001335144043 22 7.5 C 20.269999980926514 11.889999866485596 16 15 11 15 C 6 15 1.7300000190734863 11.889999866485596 0 7.5 C 1.7300000190734863 3.1100001335144043 6 0 11 0 Z M 2.180000066757202 7.5 C 3.8300000429153442 10.859999895095825 7.240000009536743 13 11 13 C 14.759999990463257 13 18.169999718666077 10.859999895095825 19.81999969482422 7.5 C 18.169999718666077 4.140000104904175 14.759999990463257 2 11 2 C 7.240000009536743 2 3.8300000429153442 4.140000104904175 2.180000066757202 7.5 Z" fill="rgb(191.25,191.25,191.25)"/>
        </svg>