<svg 
          width="16" 
          height="16" fill="none" 
          xmlns="http://www.w3.org/2000/svg">
          <path d="M 8 0 C 9.060865998268127 8.881784197001252e-16 10.078281819820404 0.4214271903038025 10.8284273147583 1.1715726852416992 C 11.578572809696198 1.921718180179596 11.999999999999998 2.9391340017318726 12 4 C 11.999999999999998 5.060865998268127 11.578572809696198 6.078281819820404 10.8284273147583 6.828427314758301 C 10.078281819820404 7.5785728096961975 9.060865998268127 7.999999999999998 8 8 C 6.939134001731873 7.999999999999998 5.921718180179596 7.5785728096961975 5.171572685241699 6.828427314758301 C 4.4214271903038025 6.078281819820404 4.000000000000003 5.060865998268127 4 4 C 4.000000000000001 2.9391340017318726 4.4214271903038025 1.921718180179596 5.171572685241699 1.1715726852416992 C 5.921718180179596 0.4214271903038025 6.939134001731873 8.881784197001252e-16 8 0 Z M 8 2 C 7.469567000865936 2.000000000000001 6.960859566926956 2.2107135951519012 6.585786819458008 2.5857863426208496 C 6.2107140719890594 2.960859090089798 6 3.4695670008659363 6 4 C 6 4.530432999134064 6.2107140719890594 5.039140433073044 6.585786819458008 5.414213180541992 C 6.960859566926956 5.7892859280109406 7.469567000865936 6 8 6 C 8.530432999134064 6 9.039140433073044 5.7892859280109406 9.414213180541992 5.414213180541992 C 9.78928592801094 5.039140433073044 10 4.530432999134064 10 4 C 10 3.4695670008659363 9.78928592801094 2.960859090089798 9.414213180541992 2.5857863426208496 C 9.039140433073044 2.2107135951519012 8.530432999134064 2.0000000000000018 8 2 Z M 8 9 C 10.670000076293945 9 16 10.329999923706055 16 13 L 16 16 L 0 16 L 0 13 C 0 10.329999923706055 5.329999923706055 9 8 9 Z M 8 10.899999618530273 C 5.0299999713897705 10.899999618530273 1.9000000953674316 12.360000014305115 1.9000000953674316 13 L 1.9000000953674316 14.100000381469727 L 14.100000381469727 14.100000381469727 L 14.100000381469727 13 C 14.100000381469727 12.360000014305115 10.97000002861023 10.899999618530273 8 10.899999618530273 Z" fill="rgb(0,0,0)"/>
        </svg>